<svg xmlns="http://www.w3.org/2000/svg" width="23" height="38" viewBox="0 0 23 38">
    <defs>
        <style>
            .cls-1{fill:#548d53}
        </style>
    </defs>
    <g id="Logo_Onatera" data-name="Logo Onatera" transform="translate(-.318 -.198)">
        <path id="Tracé_8110" data-name="Tracé 8110" class="cls-1" d="M231.357 40.574c-4.9 1.921-8-4-8-4s6.938-.9 8 4" transform="translate(-222.039 -27.376)"/>
        <path id="Tracé_8111" data-name="Tracé 8111" class="cls-1" d="M254.278 11.2c5.76-4.833 0-11 0-11s-5.758 6.491 0 11" transform="translate(-242.96)"/>
        <path id="Tracé_8112" data-name="Tracé 8112" class="cls-1" d="M277.534 61.043a26.549 26.549 0 0 0-11 2 9.247 9.247 0 0 1 3 3c2.124-.331 4.852-1.067 7-1 .9.017.983-.1 1-1v-3z" transform="translate(-254.216 -45.845)"/>
        <path id="Tracé_8113" data-name="Tracé 8113" class="cls-1" d="M226.318 84.239h4c-.932-3.044-2.056-5.817-2-9-.064-1.862.671-4.166 1-6 .477 1.861-.013 4.079 0 6a41.713 41.713 0 0 0 1 7c.2.8.8 1.339 1 2h1c1.521-5.36 1.26-14.088 0-17s-3.75-6-15-6v2c.018.948.053 1.947 1 2 3.31.066 6.343.273 8 1-2.05 4.5-1.655 13.494 0 18" transform="translate(-217 -46.041)"/>
    </g>
</svg>
