<svg xmlns="http://www.w3.org/2000/svg" width="332.392" height="280.254" viewBox="0 0 332.392 280.254">
  <g id="Gauche" transform="translate(0 -299.657)">
    <rect id="Rectangle_541" data-name="Rectangle 541" width="330" height="280" transform="translate(0 299.657)" fill="none"/>
    <g id="Herbe" transform="translate(115.684 -299.518)">
      <path id="Tracé_8040" data-name="Tracé 8040" d="M170.14-10807.858s-2.741-17.034-10.244-22.4c2.233,6.325,9.085,18.1,5.577,22.4" transform="translate(-56.651 11686.787)" fill="#618b59" opacity="0.3"/>
      <path id="Tracé_8039" data-name="Tracé 8039" d="M170.14-10807.358a.5.5,0,0,1-.493-.421,66.938,66.938,0,0,0-2.294-9.123,42.489,42.489,0,0,0-3.131-7.354,19.892,19.892,0,0,0-3.156-4.339c.391.966.838,2.01,1.3,3.09a75.713,75.713,0,0,1,3.653,9.736c1,3.767.9,6.447-.3,8.194a.5.5,0,0,1-.7.128.5.5,0,0,1-.128-.7c1.028-1.491,1.08-3.9.158-7.369a75.012,75.012,0,0,0-3.606-9.6c-.779-1.82-1.515-3.54-2.022-4.977a.5.5,0,0,1,.171-.565.5.5,0,0,1,.591-.008,17.837,17.837,0,0,1,4.912,5.925,43.5,43.5,0,0,1,3.208,7.534,68.006,68.006,0,0,1,2.327,9.265.5.5,0,0,1-.414.572A.448.448,0,0,1,170.14-10807.358Z" transform="translate(-57.554 11686.787)" fill="#707070"/>
      <path id="Tracé_8044" data-name="Tracé 8044" d="M5.3-.18C1.383,1.974,0,2.193,0,5.121a5.3,5.3,0,1,0,10.6,0C10.6,2.193,9.219-2.334,5.3-.18Z" transform="translate(167.601 841.035)" fill="#cce1cc"/>
      <path id="Tracé_8041" data-name="Tracé 8041" d="M159.9-10797.28s4.036-25.08,15.083-32.974c-3.288,9.313-12.78,26.646-7.614,32.974" transform="translate(-38.759 11676.129)" fill="#cce1cc"/>
      <path id="Tracé_8042" data-name="Tracé 8042" d="M159.9-10796.78a.447.447,0,0,1-.08-.007.5.5,0,0,1-.414-.572,99.846,99.846,0,0,1,3.418-13.6,63.809,63.809,0,0,1,4.705-11.052,26.029,26.029,0,0,1,7.163-8.646.5.5,0,0,1,.591.008.5.5,0,0,1,.171.565c-.749,2.121-1.83,4.665-2.975,7.358a111.5,111.5,0,0,0-5.363,14.39c-1.355,5.184-1.2,8.7.468,10.743a.5.5,0,0,1-.071.7.5.5,0,0,1-.7-.071c-1.886-2.311-2.1-6.114-.66-11.629a112.278,112.278,0,0,1,5.41-14.528c.846-1.989,1.657-3.9,2.321-5.6a27.812,27.812,0,0,0-5.478,7.2,62.827,62.827,0,0,0-4.629,10.878,98.69,98.69,0,0,0-3.38,13.449A.5.5,0,0,1,159.9-10796.78Z" transform="translate(-40.089 11676.129)" fill="#707070"/>
    </g>
    <g id="Groupe_987" data-name="Groupe 987" transform="translate(-928.512 22.431)">
      <path id="Tracé_8152" data-name="Tracé 8152" d="M4.071-.311C1.062,1.343,0,1.512,0,3.76a4.071,4.071,0,1,0,8.141,0C8.141,1.512,7.079-1.965,4.071-.311Z" transform="translate(1083.98 400.084)" fill="#fff"/>
      <path id="Tracé_8153" data-name="Tracé 8153" d="M3.62,1A2.623,2.623,0,0,0,1,3.62a3.985,3.985,0,0,0,.568,2.014,1.467,1.467,0,0,0,1.14.8,1.4,1.4,0,0,0,.529-.118c2.326-.963,3-1.434,3-2.7A2.623,2.623,0,0,0,3.62,1m0-1a3.62,3.62,0,0,1,3.62,3.62c0,2-1.4,2.7-3.62,3.62S0,5.619,0,3.62A3.62,3.62,0,0,1,3.62,0Z" transform="translate(1084.979 401.799)" fill="#707070"/>
    </g>
    <path id="Tracé_8166" data-name="Tracé 8166" d="M-9044.207-12162.335c-3.146,28.213,25.328,34.93,24.178,59.723-.852,53.551-42.715,49.672-42.715,49.672s-49.5,3.578-43.734-81.3c3.115-32.547,30.156-46,31.338-70.391S-9029.672-12236.6-9044.207-12162.335Z" transform="translate(9152 12593.289)" fill="#cce1cc"/>
    <path id="Tracé_8167" data-name="Tracé 8167" d="M-9059.192-12222.172a13.347,13.347,0,0,1,5.9,1.371,16.177,16.177,0,0,1,5.36,4.34,26.181,26.181,0,0,1,4.231,7.683,48.358,48.358,0,0,1,2.493,11.344c1.033,9.563.19,21.4-2.5,35.175a34.467,34.467,0,0,0,.256,9.933,32.5,32.5,0,0,0,2.658,8.282c2.4,5.109,5.924,9.531,9.328,13.808a76.024,76.024,0,0,1,8.519,12.272,31.346,31.346,0,0,1,2.669,7.109,29.29,29.29,0,0,1,.753,8.259c-.174,10.859-2.061,20.18-5.609,27.7a38.615,38.615,0,0,1-12.276,15.1,38.831,38.831,0,0,1-13.671,6.215,42.142,42.142,0,0,1-9.815,1.208c-1.035,0-1.684-.048-1.849-.062-.1.007-.393.021-.843.021a35.5,35.5,0,0,1-10.823-1.876,39.351,39.351,0,0,1-16.458-10.659c-5.768-6.173-10.095-14.432-12.86-24.548a106.055,106.055,0,0,1-3.255-19.479,173.877,173.877,0,0,1,.012-25.293s0-.009,0-.014a63,63,0,0,1,6.579-22.461,139.989,139.989,0,0,1,11.064-17.7,125.334,125.334,0,0,0,9.222-14.532,37.815,37.815,0,0,0,4.472-15.678,19.273,19.273,0,0,1,5.343-12.561,16.873,16.873,0,0,1,5.153-3.643A14.4,14.4,0,0,1-9059.192-12222.172Zm-1.709,168.794a40.2,40.2,0,0,0,22.9-7.233,37.637,37.637,0,0,0,11.958-14.712c3.488-7.394,5.343-16.577,5.514-27.3a.084.084,0,0,1,0-.016,28.355,28.355,0,0,0-.727-7.988,30.353,30.353,0,0,0-2.586-6.884c-2.222-4.332-5.229-8.108-8.411-12.107-6.946-8.725-14.128-17.746-12.452-32.775,0-.014,0-.027.007-.04,2.679-13.687,3.518-25.429,2.5-34.9a47.366,47.366,0,0,0-2.438-11.107,25.155,25.155,0,0,0-4.064-7.391,15.181,15.181,0,0,0-5.027-4.077,12.35,12.35,0,0,0-5.46-1.27,13.425,13.425,0,0,0-5.54,1.226,15.866,15.866,0,0,0-4.848,3.43,18.275,18.275,0,0,0-5.062,11.911c-.566,11.69-7.029,20.94-13.871,30.734a139.029,139.029,0,0,0-10.99,17.569,62.018,62.018,0,0,0-6.478,22.1,172.874,172.874,0,0,0-.012,25.14,105.158,105.158,0,0,0,3.222,19.294c2.723,9.958,6.972,18.075,12.627,24.128a38.356,38.356,0,0,0,16.043,10.394,34.458,34.458,0,0,0,10.508,1.825c.52,0,.811-.02.813-.021a.381.381,0,0,1,.082,0C-9062.691-12053.437-9062.032-12053.378-9060.9-12053.378Z" transform="translate(9158 12593.289)" fill="#707070"/>
    <path id="Tracé_8168" data-name="Tracé 8168" d="M-10768.108-11206.5a.5.5,0,0,1-.5-.5v-39a.5.5,0,0,1,.5-.5.5.5,0,0,1,.5.5v39A.5.5,0,0,1-10768.108-11206.5Z" transform="translate(10865 11786.411)" fill="#707070"/>
    <g id="Bulle" transform="translate(-806.543 -63.45)">
      <g id="Groupe_1001" data-name="Groupe 1001">
        <path id="Tracé_8195" data-name="Tracé 8195" d="M3.991-.319C1.041,1.3,0,1.468,0,3.673a3.991,3.991,0,1,0,7.983,0C7.983,1.468,6.941-1.941,3.991-.319Z" transform="translate(1130.858 401.85)" fill="#fff"/>
        <path id="Tracé_8194" data-name="Tracé 8194" d="M3.549,1A2.552,2.552,0,0,0,1,3.549a3.887,3.887,0,0,0,.554,1.965,1.421,1.421,0,0,0,1.1.775,1.35,1.35,0,0,0,.511-.114C5.438,5.234,6.1,4.775,6.1,3.549A2.552,2.552,0,0,0,3.549,1m0-1A3.549,3.549,0,0,1,7.1,3.549C7.1,5.509,5.724,6.2,3.549,7.1S0,5.509,0,3.549A3.549,3.549,0,0,1,3.549,0Z" transform="translate(1131.837 403.518)" fill="#707070"/>
      </g>
    </g>
  </g>
</svg>
