<svg xmlns="http://www.w3.org/2000/svg" id="Logo_Onatera_-_05_04_21" width="229.861" height="96.839" viewBox="0 0 229.861 96.839">
    <defs>
        <style>
            .cls-1{fill:#fff}
        </style>
    </defs>
    <g id="Calque_1">
        <g id="Calque_3" transform="translate(.062)">
            <g id="Calque_2-2">
                <g id="Calque_1-2">
                    <path id="Tracé_8110" d="M236.782 43.5c-8.612 3.377-13.032-6.634-13.032-6.634s11.165-1.978 13.032 6.634" class="cls-1" transform="translate(-124.121 -20.332)"/>
                    <path id="Tracé_8111" d="M256.271 20.5c10.127-8.5 0-20.5 0-20.5s-10.123 12.569 0 20.5" class="cls-1" transform="translate(-139.658)"/>
                    <path id="Tracé_8112" d="M285.117 61.409c-7.8 0-13.736-.116-18.267 2.094a15.672 15.672 0 0 1 5.119 5.235 61.007 61.007 0 0 1 11.29-.7 2.856 2.856 0 0 0 2.909-2.8v-3.829z" class="cls-1" transform="translate(-148.018 -34.048)"/>
                    <path id="Tracé_8113" d="M233.851 102.05h5.819a53.227 53.227 0 0 1-2.326-16.525 46.376 46.376 0 0 1 .7-9.775 41.461 41.461 0 0 1 1.3 10.011 73.06 73.06 0 0 0 1.395 12.333q.53 2.1 1.047 3.841h1.631c2.673-9.423 2.562-24.67.347-29.789S236.778 61.67 217 61.67v3.63a3.186 3.186 0 0 0 3.007 3.119c5.819.116 10.007.815 12.921 2.094-3.6 7.913-1.978 23.614.931 31.536" class="cls-1" transform="translate(-120.379 -34.193)"/>
                    <path id="Tracé_8114" d="M15.854 81.6a6.531 6.531 0 0 0-3.609 1.047 8.7 8.7 0 0 0-2.326 2.673 13.05 13.05 0 0 0-1.163 3.609 24.032 24.032 0 0 0 0 8.145 13.049 13.049 0 0 0 1.163 3.609 7.044 7.044 0 0 0 2.228 2.673 5.409 5.409 0 0 0 3.493 1.044 6.206 6.206 0 0 0 3.493-1.047 7 7 0 0 0 2.228-2.673 13.049 13.049 0 0 0 1.163-3.609 24.033 24.033 0 0 0 0-8.145 13.05 13.05 0 0 0-1.163-3.609 7 7 0 0 0-2.228-2.673 4.772 4.772 0 0 0-3.262-1.044m-.446 28.394a15.849 15.849 0 0 1-6.982-1.279 12.921 12.921 0 0 1-4.655-3.615 13.629 13.629 0 0 1-2.673-5.346 23.436 23.436 0 0 1-.976-6.87 25.5 25.5 0 0 1 .931-6.643A13.464 13.464 0 0 1 3.98 80.9a13.812 13.812 0 0 1 4.9-3.6 16.37 16.37 0 0 1 7.1-1.283 17.1 17.1 0 0 1 6.864 1.283 12.574 12.574 0 0 1 4.656 3.492 13.086 13.086 0 0 1 2.673 5.24 25.748 25.748 0 0 1 0 13.732 16.294 16.294 0 0 1-2.794 5.471 13.322 13.322 0 0 1-4.772 3.6A18.682 18.682 0 0 1 15.395 110" class="cls-1" transform="translate(-.139 -42.136)"/>
                    <path id="Tracé_8115" d="M104.345 109.342l-12.921-20.5v20.5H83.73V76.759l.815-.116a17.3 17.3 0 0 1 2.446-.116 5.427 5.427 0 0 1 3.025.579 6.626 6.626 0 0 1 1.746 1.845l11.17 17.924V76.759h.236a3.564 3.564 0 0 1 1.163-.116h1.047a10.855 10.855 0 0 1 1.978.116 6.838 6.838 0 0 1 1.631.579 2.825 2.825 0 0 1 1.149 1.167 3.779 3.779 0 0 1 .446 1.978v28.764z" class="cls-1" transform="translate(-46.486 -42.416)"/>
                    <path id="Tracé_8116" d="M167.923 96.945h8.96l-4.54-14.084zm12.569 12.448l-2.909-8.26h-10.475l-2.673 8.26h-7.575l10.475-32a11.219 11.219 0 0 1 1.862-.446 17.9 17.9 0 0 1 3.373-.348 9.922 9.922 0 0 1 1.747.116 6.653 6.653 0 0 1 1.631.446 4.768 4.768 0 0 1 1.51 1.163 5.347 5.347 0 0 1 1.167 2.1l9.659 28.96z" class="cls-1" transform="translate(-87.034 -42.468)"/>
                    <path id="Tracé_8117" d="M338.992 106.666a3.707 3.707 0 0 0-.584-1.163 3.029 3.029 0 0 0-1.279-.815 8.912 8.912 0 0 0-2.446-.348h-9.663v-8.265h10.127v-5.467H325.02v-7.8h9.08a7.638 7.638 0 0 0 2.33-.352 4.013 4.013 0 0 0 1.167-.815 4.454 4.454 0 0 0 .584-1.047 5.706 5.706 0 0 0 .232-1.395V77.34h-19.185A2.228 2.228 0 0 0 317 79.568v30.377h22.112v-1.653c0-.584-.116-1.163-.116-1.631" class="cls-1" transform="translate(-175.824 -42.882)"/>
                    <path id="Tracé_8118" d="M388.743 82.611V93.78h2.557a4.09 4.09 0 0 0 3.957-2.228 8.857 8.857 0 0 0 1.047-4.188 7.673 7.673 0 0 0-1.163-4.424 4.072 4.072 0 0 0-3.613-1.729 22.328 22.328 0 0 0-2.557.12zm13.157 27.347a7.6 7.6 0 0 1-3.609-.584 5.057 5.057 0 0 1-2.228-2.228l-4.663-9.191h-2.67v11.419h-8.02V77.023c1.4-.116 2.909-.232 4.424-.348 1.862-.116 3.489-.116 4.772-.116 5.119 0 8.96.811 11.286 2.442s3.377 3.956 3.377 7.218a10.539 10.539 0 0 1-.446 3.373 10.646 10.646 0 0 1-1.163 2.673 8.146 8.146 0 0 1-1.51 1.978 8.907 8.907 0 0 1-1.631 1.279l-1.158.584 7.574 13.032a16.447 16.447 0 0 1-4.3.815z" class="cls-1" transform="translate(-211.149 -42.449)"/>
                    <path id="Tracé_8119" d="M456.41 96.945h8.964l-4.54-13.968zm12.569 12.448l-2.9-8.26H455.6l-2.673 8.26h-7.69l10.475-32a10.7 10.7 0 0 1 1.862-.445 16.508 16.508 0 0 1 3.373-.348 9.921 9.921 0 0 1 1.747.116 6.852 6.852 0 0 1 1.631.446 4.768 4.768 0 0 1 1.51 1.163A5.3 5.3 0 0 1 467 80.42l9.659 28.96z" class="cls-1" transform="translate(-246.928 -42.468)"/>
                </g>
            </g>
        </g>
        <path id="Tracé_8120" d="M12.252 174.45v14.95h-1.519v-2.522a5.333 5.333 0 0 1-5.026 2.673 5.482 5.482 0 0 1-4.188-1.6A6.431 6.431 0 0 1 0 183.365v-8.911h1.582v8.871a5.022 5.022 0 0 0 1.167 3.6 4.3 4.3 0 0 0 3.257 1.216 4.522 4.522 0 0 0 3.435-1.292 5.4 5.4 0 0 0 1.252-3.885v-8.51z" class="cls-1" transform="translate(0 -96.725)"/>
        <path id="Tracé_8121" d="M46.818 183.833a4.786 4.786 0 0 1 1.248 3.564v6.518h-1.515v-6.371a3.738 3.738 0 0 0-.891-2.673 3.3 3.3 0 0 0-2.468-.9 3.854 3.854 0 0 0-2.878 1.078 4.09 4.09 0 0 0-1.056 2.985v5.881H37.72v-11.227h1.461v2.072a4.264 4.264 0 0 1 1.72-1.591 5.5 5.5 0 0 1 2.557-.566 4.594 4.594 0 0 1 3.359 1.23z" class="cls-1" transform="translate(-20.914 -101.242)"/>
        <path id="Tracé_8122" d="M75.636 192.354a4.012 4.012 0 0 0 1.506-1.078l.855.98a4.789 4.789 0 0 1-1.858 1.368 6.205 6.205 0 0 1-2.459.472 6.282 6.282 0 0 1-3.079-.74 5.275 5.275 0 0 1-2.094-2.041 5.819 5.819 0 0 1-.749-2.949 6.032 6.032 0 0 1 .713-2.949 5.226 5.226 0 0 1 1.978-2.032 5.623 5.623 0 0 1 2.865-.726 5.4 5.4 0 0 1 2.7.682 5.154 5.154 0 0 1 1.925 1.9 5.757 5.757 0 0 1 .762 2.78l-9.236 1.782a4.01 4.01 0 0 0 1.551 2.152 4.6 4.6 0 0 0 2.673.78 4.9 4.9 0 0 0 1.947-.381zm-4.424-7.868A3.846 3.846 0 0 0 69.755 186a4.67 4.67 0 0 0-.521 2.228 3.123 3.123 0 0 0 .022.472l7.931-1.542a3.894 3.894 0 0 0-1.3-2.312 3.782 3.782 0 0 0-2.566-.891 4.054 4.054 0 0 0-2.109.531z" class="cls-1" transform="translate(-37.569 -101.276)"/>
        <path id="Tracé_8123" d="M120.941 183.832a4.762 4.762 0 0 1 1.248 3.564v6.518h-1.515v-6.371a3.738 3.738 0 0 0-.891-2.673 3.306 3.306 0 0 0-2.5-.918 3.845 3.845 0 0 0-2.874 1.078 4.1 4.1 0 0 0-1.06 2.985v5.9h-1.519v-11.228h1.452v2.072a4.237 4.237 0 0 1 1.72-1.591 5.5 5.5 0 0 1 2.557-.566 4.607 4.607 0 0 1 3.382 1.23z" class="cls-1" transform="translate(-62.005 -101.241)"/>
        <path id="Tracé_8124" d="M153.292 182.666v11.228h-1.452v-2.228a4.616 4.616 0 0 1-1.8 1.733 5.347 5.347 0 0 1-2.535.6 5.694 5.694 0 0 1-2.865-.726 5.182 5.182 0 0 1-2.009-2.032 6.443 6.443 0 0 1 0-5.944 5.133 5.133 0 0 1 2.009-2.023 5.792 5.792 0 0 1 2.865-.713 5.3 5.3 0 0 1 2.468.566 4.7 4.7 0 0 1 1.809 1.657v-2.139zm-3.538 9.446a3.831 3.831 0 0 0 1.5-1.55 5.088 5.088 0 0 0 0-4.576 3.85 3.85 0 0 0-1.5-1.546 4.171 4.171 0 0 0-2.125-.548 4.237 4.237 0 0 0-2.152.548 3.881 3.881 0 0 0-1.5 1.546 5.088 5.088 0 0 0 0 4.576 3.862 3.862 0 0 0 1.5 1.55 4.237 4.237 0 0 0 2.152.548 4.17 4.17 0 0 0 2.126-.548z" class="cls-1" transform="translate(-78.677 -101.221)"/>
        <path id="Tracé_8125" d="M182.367 190.3a2.826 2.826 0 0 1-1.047.588 4.079 4.079 0 0 1-1.3.2 3.306 3.306 0 0 1-2.442-.855 3.265 3.265 0 0 1-.855-2.415V177.28h1.519v2.459h3.4v1.283h-3.4v6.714a2.152 2.152 0 0 0 .495 1.528 1.867 1.867 0 0 0 1.43.521 2.4 2.4 0 0 0 1.666-.575z" class="cls-1" transform="translate(-97.981 -98.294)"/>
        <path id="Tracé_8126" d="M205.593 182.8v11.228h-1.452v-2.054a4.174 4.174 0 0 1-1.648 1.6 4.946 4.946 0 0 1-2.393.566 4.357 4.357 0 0 1-4.749-4.83v-6.5h1.519v6.371a3.773 3.773 0 0 0 .891 2.7 3.3 3.3 0 0 0 2.5.918 3.694 3.694 0 0 0 2.8-1.078 4.206 4.206 0 0 0 1.025-3.007v-5.9z" class="cls-1" transform="translate(-108.313 -101.355)"/>
        <path id="Tracé_8127" d="M230.938 183.181a5.417 5.417 0 0 1 2.615-.575v1.475h-.361a3.591 3.591 0 0 0-2.78 1.092 4.353 4.353 0 0 0-1.007 3.056v5.69h-1.515v-11.228h1.452v2.2a3.694 3.694 0 0 1 1.596-1.71z" class="cls-1" transform="translate(-126.355 -101.246)"/>
        <path id="Tracé_8128" d="M251.824 192.354a4.058 4.058 0 0 0 1.493-1.078l.855.98a4.771 4.771 0 0 1-1.862 1.368 6.706 6.706 0 0 1-5.534-.267 5.284 5.284 0 0 1-2.1-2.041 5.819 5.819 0 0 1-.749-2.949 6.032 6.032 0 0 1 .717-2.95 5.163 5.163 0 0 1 1.978-2.032 5.622 5.622 0 0 1 2.865-.726 5.409 5.409 0 0 1 2.7.682 5.155 5.155 0 0 1 1.925 1.9 5.707 5.707 0 0 1 .757 2.78l-9.236 1.782a4.01 4.01 0 0 0 1.55 2.152 4.607 4.607 0 0 0 2.673.78 4.946 4.946 0 0 0 1.96-.383zm-4.429-7.868a3.805 3.805 0 0 0-1.452 1.514 4.669 4.669 0 0 0-.526 2.228 3.894 3.894 0 0 0 0 .472l7.935-1.542a3.916 3.916 0 0 0-1.305-2.321 3.783 3.783 0 0 0-2.566-.891 4.086 4.086 0 0 0-2.085.539z" class="cls-1" transform="translate(-135.248 -101.276)"/>
        <path id="Tracé_8129" d="M273.584 205.037a1.141 1.141 0 0 1-.334-.833 1.123 1.123 0 0 1 .334-.824 1.092 1.092 0 0 1 .8-.33 1.136 1.136 0 0 1 .811.33 1.114 1.114 0 0 1 .343.824 1.132 1.132 0 0 1-.343.833 1.114 1.114 0 0 1-.811.343 1.07 1.07 0 0 1-.8-.343z" class="cls-1" transform="translate(-151.505 -112.582)"/>
        <path id="Tracé_8130" d="M310.922 174.45v14.95H309.4v-2.522a5.327 5.327 0 0 1-5.026 2.673 5.483 5.483 0 0 1-4.188-1.6 6.425 6.425 0 0 1-1.519-4.576v-8.911h1.582v8.871a5.035 5.035 0 0 0 1.163 3.6 4.313 4.313 0 0 0 3.261 1.216 4.509 4.509 0 0 0 3.431-1.292 5.448 5.448 0 0 0 1.23-3.881v-8.51z" class="cls-1" transform="translate(-165.599 -96.725)"/>
        <path id="Tracé_8131" d="M345.471 183.832a4.762 4.762 0 0 1 1.248 3.564v6.518H345.2v-6.371a3.739 3.739 0 0 0-.891-2.673 3.306 3.306 0 0 0-2.5-.918 3.845 3.845 0 0 0-2.874 1.078 4.1 4.1 0 0 0-1.06 2.985v5.9h-1.515v-11.228h1.453v2.072a4.237 4.237 0 0 1 1.72-1.591 5.5 5.5 0 0 1 2.557-.566 4.608 4.608 0 0 1 3.382 1.23z" class="cls-1" transform="translate(-186.497 -101.241)"/>
        <path id="Tracé_8132" d="M381.711 193.32a5.279 5.279 0 0 1-2.063-2.041 5.889 5.889 0 0 1-.748-2.963 5.819 5.819 0 0 1 .748-2.95 5.288 5.288 0 0 1 2.063-2.032 6.055 6.055 0 0 1 2.985-.726 5.766 5.766 0 0 1 2.6.566 4.32 4.32 0 0 1 1.8 1.657l-1.132.771a3.524 3.524 0 0 0-1.412-1.252 4.147 4.147 0 0 0-1.858-.419 4.375 4.375 0 0 0-2.192.548 3.819 3.819 0 0 0-1.519 1.546 5.115 5.115 0 0 0 0 4.589 3.823 3.823 0 0 0 1.524 1.524 4.375 4.375 0 0 0 2.192.548 4.325 4.325 0 0 0 1.858-.405 3.471 3.471 0 0 0 1.412-1.243l1.132.771a4.3 4.3 0 0 1-1.818 1.657 5.76 5.76 0 0 1-2.584.566 6.055 6.055 0 0 1-2.988-.712z" class="cls-1" transform="translate(-210.083 -101.248)"/>
        <path id="Tracé_8133" d="M408.288 193.308a5.347 5.347 0 0 1-2.049-2.041 6.184 6.184 0 0 1 0-5.9 5.315 5.315 0 0 1 2.05-2.032 6.273 6.273 0 0 1 5.859 0 5.228 5.228 0 0 1 2.041 2.032 6.237 6.237 0 0 1 0 5.9 5.283 5.283 0 0 1-2.041 2.041 6.171 6.171 0 0 1-5.86 0zm5.079-1.154a3.774 3.774 0 0 0 1.484-1.551 5.124 5.124 0 0 0 0-4.576 3.791 3.791 0 0 0-1.484-1.546 4.491 4.491 0 0 0-4.3 0 3.84 3.84 0 0 0-1.493 1.546 5.048 5.048 0 0 0 0 4.576 3.823 3.823 0 0 0 1.493 1.551 4.491 4.491 0 0 0 4.3 0z" class="cls-1" transform="translate(-224.826 -101.25)"/>
        <path id="Tracé_8134" d="M441.208 183.181a5.427 5.427 0 0 1 2.62-.575v1.475h-.365a3.592 3.592 0 0 0-2.78 1.092 4.348 4.348 0 0 0-1 3.056v5.69h-1.523v-11.228h1.452v2.2a3.694 3.694 0 0 1 1.596-1.71z" class="cls-1" transform="translate(-242.941 -101.245)"/>
        <path id="Tracé_8135" d="M465.648 183.349a5.159 5.159 0 0 1 2.009 2.023 6.486 6.486 0 0 1 0 5.966 5.146 5.146 0 0 1-2 2.018 5.791 5.791 0 0 1-2.878.717 5.3 5.3 0 0 1-2.468-.566 4.706 4.706 0 0 1-1.809-1.657v6.264H457v-15.393h1.452v2.228a4.7 4.7 0 0 1 1.8-1.693 5.306 5.306 0 0 1 2.531-.6 5.792 5.792 0 0 1 2.865.693zm-.833 8.817a3.8 3.8 0 0 0 1.506-1.551 4.687 4.687 0 0 0 .548-2.286 4.64 4.64 0 0 0-.548-2.277 3.909 3.909 0 0 0-1.506-1.55 4.4 4.4 0 0 0-4.286 0 3.977 3.977 0 0 0-1.5 1.55 5.058 5.058 0 0 0 0 4.562 3.862 3.862 0 0 0 1.5 1.551 4.455 4.455 0 0 0 4.286.001z" class="cls-1" transform="translate(-253.387 -101.276)"/>
        <path id="Tracé_8136" d="M487.966 193.661a5.568 5.568 0 0 1-1.956-.994l.682-1.2a5.642 5.642 0 0 0 1.782.891 7.018 7.018 0 0 0 2.228.352 4.252 4.252 0 0 0 2.277-.477 1.537 1.537 0 0 0 .735-1.337 1.225 1.225 0 0 0-.406-.976 2.8 2.8 0 0 0-1.025-.535 15.287 15.287 0 0 0-1.648-.352 18.774 18.774 0 0 1-2.2-.521 3.23 3.23 0 0 1-1.421-.891 2.526 2.526 0 0 1-.588-1.782 2.785 2.785 0 0 1 1.176-2.312 5.294 5.294 0 0 1 3.27-.891 8.538 8.538 0 0 1 2.183.285 6.164 6.164 0 0 1 1.782.762l-.664 1.216a5.677 5.677 0 0 0-3.315-.962 3.846 3.846 0 0 0-2.192.517 1.564 1.564 0 0 0-.735 1.337 1.337 1.337 0 0 0 .414 1.025 2.546 2.546 0 0 0 1.038.566 15.065 15.065 0 0 0 1.711.374 19.614 19.614 0 0 1 2.161.517 3.214 3.214 0 0 1 1.39.891 2.423 2.423 0 0 1 .575 1.711 2.727 2.727 0 0 1-1.23 2.344 5.859 5.859 0 0 1-3.408.864 8.66 8.66 0 0 1-2.616-.422z" class="cls-1" transform="translate(-269.471 -101.26)"/>
        <path id="Tracé_8137" d="M511.1 205.037a1.158 1.158 0 0 1-.33-.833 1.136 1.136 0 0 1 .33-.824 1.1 1.1 0 0 1 .8-.33 1.136 1.136 0 0 1 .815.33 1.114 1.114 0 0 1 .343.824 1.132 1.132 0 0 1-.343.833 1.114 1.114 0 0 1-.815.343 1.088 1.088 0 0 1-.8-.343z" class="cls-1" transform="translate(-283.2 -112.582)"/>
    </g>
</svg>
