<svg xmlns="http://www.w3.org/2000/svg" width="88" height="29.592" viewBox="0 0 88 29.592">
    <defs>
        <style>
            .cls-1{fill:none}.cls-2{fill:#fabf33}
        </style>
    </defs>
    <g id="avis" transform="translate(48.646 -230.094)">
        <g id="Etoile_de_notation_mini_" data-name="Etoile de notation mini" transform="translate(27.354 245.094)">
            <path id="fond" class="cls-1" d="M0 0h12v12H0z"/>
            <g id="Icon_Outline_star" data-name="Icon/Outline/star">
                <path id="fond-2" data-name="fond" class="cls-1" d="M0 0h12v12H0z"/>
                <path id="Icon" class="cls-2" d="M6.371 1.139a.987.987 0 0 1 .948.681l.915 2.721 2.792.075a1 1 0 0 1 .6 1.778l-2.257 1.82.8 2.835a.988.988 0 0 1-.161.872 1.013 1.013 0 0 1-.8.4.992.992 0 0 1-.584-.192L6.371 10.5l-2.25 1.628a.992.992 0 0 1-.584.192 1.013 1.013 0 0 1-.8-.4.988.988 0 0 1-.161-.872l.8-2.835-2.261-1.818a1 1 0 0 1 .6-1.778l2.792-.075.916-2.722a.987.987 0 0 1 .948-.681z" transform="translate(-.371 -.569)"/>
            </g>
        </g>
        <g id="Etoile_de_notation_mini_2" data-name="Etoile de notation mini" transform="translate(8.354 235.094)">
            <path id="fond-3" data-name="fond" class="cls-1" d="M0 0h12v12H0z"/>
            <g id="Icon_Outline_star-2" data-name="Icon/Outline/star">
                <path id="fond-4" data-name="fond" class="cls-1" d="M0 0h12v12H0z"/>
                <path id="Icon-2" data-name="Icon" class="cls-2" d="M6.371 1.139a.987.987 0 0 1 .948.681l.915 2.721 2.792.075a1 1 0 0 1 .6 1.778l-2.257 1.82.8 2.835a.988.988 0 0 1-.161.872 1.013 1.013 0 0 1-.8.4.992.992 0 0 1-.584-.192L6.371 10.5l-2.25 1.628a.992.992 0 0 1-.584.192 1.013 1.013 0 0 1-.8-.4.988.988 0 0 1-.161-.872l.8-2.835-2.261-1.818a1 1 0 0 1 .6-1.778l2.792-.075.916-2.722a.987.987 0 0 1 .948-.681z" transform="translate(-.371 -.569)"/>
            </g>
        </g>
        <g id="Etoile_de_notation_mini_3" data-name="Etoile de notation mini" transform="translate(-10.646 230.094)">
            <path id="fond-5" data-name="fond" class="cls-1" d="M0 0h12v12H0z"/>
            <g id="Icon_Outline_star-3" data-name="Icon/Outline/star">
                <path id="fond-6" data-name="fond" class="cls-1" d="M0 0h12v12H0z"/>
                <path id="Icon-3" data-name="Icon" class="cls-2" d="M6.371 1.139a.987.987 0 0 1 .948.681l.915 2.721 2.792.075a1 1 0 0 1 .6 1.778l-2.257 1.82.8 2.835a.988.988 0 0 1-.161.872 1.013 1.013 0 0 1-.8.4.992.992 0 0 1-.584-.192L6.371 10.5l-2.25 1.628a.992.992 0 0 1-.584.192 1.013 1.013 0 0 1-.8-.4.988.988 0 0 1-.161-.872l.8-2.835-2.261-1.818a1 1 0 0 1 .6-1.778l2.792-.075.916-2.722a.987.987 0 0 1 .948-.681z" transform="translate(-.371 -.569)"/>
            </g>
        </g>
        <g id="Etoile_de_notation_mini_4" data-name="Etoile de notation mini" transform="translate(-29.646 236.501)">
            <path id="fond-7" data-name="fond" class="cls-1" transform="translate(0 11.185)" d="M0 0h12v12H0z"/>
            <g id="Icon_Outline_star-4" data-name="Icon/Outline/star">
                <path id="fond-8" data-name="fond" class="cls-1" transform="translate(0 11.185)" d="M0 0h12v12H0z"/>
                <path id="Icon-4" data-name="Icon" class="cls-2" d="M6.371 1.139a.987.987 0 0 1 .948.681l.915 2.721 2.792.075a1 1 0 0 1 .6 1.778l-2.257 1.82.8 2.835a.988.988 0 0 1-.161.872 1.013 1.013 0 0 1-.8.4.992.992 0 0 1-.584-.192L6.371 10.5l-2.25 1.628a.992.992 0 0 1-.584.192 1.013 1.013 0 0 1-.8-.4.988.988 0 0 1-.161-.872l.8-2.835-2.261-1.818a1 1 0 0 1 .6-1.778l2.792-.075.916-2.722a.987.987 0 0 1 .948-.681z" transform="translate(-.741 -1.139)"/>
            </g>
        </g>
        <g id="Etoile_de_notation_mini_5" data-name="Etoile de notation mini" transform="translate(-48.646 246.094)">
            <path id="fond-9" data-name="fond" class="cls-1" d="M0 0h12v12H0z"/>
            <g id="Icon_Outline_star-5" data-name="Icon/Outline/star">
                <path id="fond-10" data-name="fond" class="cls-1" d="M0 0h12v12H0z"/>
                <path id="Icon-5" data-name="Icon" class="cls-2" d="M6.371 1.139a.987.987 0 0 1 .948.681l.915 2.721 2.792.075a1 1 0 0 1 .6 1.778l-2.257 1.82.8 2.835a.988.988 0 0 1-.161.872 1.013 1.013 0 0 1-.8.4.992.992 0 0 1-.584-.192L6.371 10.5l-2.25 1.628a.992.992 0 0 1-.584.192 1.013 1.013 0 0 1-.8-.4.988.988 0 0 1-.161-.872l.8-2.835-2.261-1.818a1 1 0 0 1 .6-1.778l2.792-.075.916-2.722a.987.987 0 0 1 .948-.681z" transform="translate(-.371 -.569)"/>
            </g>
        </g>
    </g>
</svg>
