<svg data-name="Logo point relais" xmlns="http://www.w3.org/2000/svg" width="32" height="32" viewBox="0 0 32 32">
    <circle data-name="Ellipse 147" cx="16" cy="16" r="16" style="fill:#ed721a"/>
    <g data-name="Groupe 6895">
        <path data-name="Union 26" d="M19426.76 11.407a10.029 10.029 0 0 1-1.762-6.06 1 1 0 0 1 1-1h3.3V1.874a3.7 3.7 0 1 1 7.4 0v2.473h3.3a1 1 0 0 1 1 1 10.334 10.334 0 0 1-1.762 6.06 8.1 8.1 0 0 1-12.48 0zm8.543-7.06V1.874a2.3 2.3 0 1 0-4.6 0v2.473z" transform="translate(-19417 10.154)" style="fill:#fff"/>
    </g>
</svg>
