<svg xmlns="http://www.w3.org/2000/svg" viewBox="0 0 54.7 30.4"><linearGradient id="a" gradientUnits="userSpaceOnUse" x1="8.608" y1="794.574" x2="45.908" y2="757.274" gradientTransform="translate(0 -760.724)"><stop offset="0" stop-color="#229c48"/><stop offset=".474" stop-color="#117da1"/><stop offset="1" stop-color="#1f2a4e"/></linearGradient><path d="M5.2 0h44.2v30.4H5.2V0z" fill="url(#a)"/><path d="M44.9 10.6c0-.5-.1-1-.3-1.5s-.5-.9-.8-1.2c-.4-.4-.8-.7-1.3-.8-.5-.2-1.1-.2-1.9-.2H29.7v7.4h10.9c.8 0 1.5-.1 1.9-.2.5-.2.9-.4 1.3-.8s.6-.8.8-1.2c.2-.5.3-1 .3-1.5m0 9.2c0-.5-.1-1-.3-1.5s-.5-.9-.8-1.2c-.4-.4-.8-.7-1.3-.8-.5-.2-1.1-.2-1.9-.2H29.7v7.4h10.9c.8 0 1.5-.1 1.9-.2.5-.2.9-.4 1.3-.8s.6-.8.8-1.2c.2-.6.3-1 .3-1.5m-16.8-5.5c-.4-4.8-3.8-7.9-9.2-7.9-5.7 0-9.2 3.5-9.2 8.8 0 5.5 3.7 8.8 9.2 8.8 5.4 0 8.8-3 9.2-7.9h-9.3v-1.8h9.3z" fill="#fff"/></svg>