<svg xmlns="http://www.w3.org/2000/svg" viewBox="0 0 54.7 30.4"><path d="M27 6.7l-3.6 17H19l3.6-17H27zm18.5 11l2.3-6.4 1.3 6.4h-3.6zm5 6h4.1L51 6.7h-3.7c-.9 0-1.6.5-1.9 1.2l-6.6 15.8h4.6l.9-2.5H50l.5 2.5zM39 18.2c0-4.5-6.2-4.8-6.2-6.8 0-.6.6-1.2 1.9-1.4.6-.1 2.4-.2 4.3.8l.8-3.6c-1.1-.4-2.5-.7-4.1-.7-4.4 0-7.4 2.3-7.5 5.6 0 2.5 2.2 3.8 3.9 4.6 1.7.8 2.3 1.4 2.3 2.1 0 1.1-1.4 1.6-2.7 1.7-2.2 0-3.5-.6-4.5-1.1l-.8 3.7c1 .5 2.9.9 4.9.9 4.6 0 7.6-2.3 7.7-5.8M20.7 6.7l-7.1 17H8.9L5.4 10.1c-.2-.8-.4-1.1-1-1.4C3.3 8.1 1.6 7.5 0 7.2l.1-.5h7.5c1 0 1.8.6 2 1.7l1.9 9.9 4.6-11.6h4.6z" fill="#1c2f76"/></svg>