<svg id="Illustration_Herbes" data-name="Illustration / Herbes" xmlns="http://www.w3.org/2000/svg" width="112" height="112.362" viewBox="0 0 112 112.362">
    <defs>
        <style>
            .cls-1{fill:#cce1cc}.cls-2{fill:none;stroke:#4b5563;stroke-linecap:round;stroke-linejoin:round}
        </style>
    </defs>
    <path id="Tracé_8040" data-name="Tracé 8040" class="cls-1" d="M194.518-10754.568s-9.264-57.566-34.622-75.686c7.547 21.375 30.5 61.164 18.646 75.686" transform="translate(-133.844 10866.227)"/>
    <path id="Tracé_8039" data-name="Tracé 8039" class="cls-2" d="M194.518-10754.568s-9.264-57.566-34.622-75.686c7.547 21.375 29.605 61.164 17.748 75.686" transform="translate(-136.896 10866.227)"/>
    <path id="Tracé_8044" data-name="Tracé 8044" d="M6.436-.06C1.679 2.555 0 2.822 0 6.377a6.436 6.436 0 1 0 12.873 0c0-3.555-1.68-9.052-6.437-6.437z" transform="translate(65.665 23.742)" style="fill:#fff"/>
    <path id="Tracé_8045" data-name="Tracé 8045" class="cls-2" d="M5.723 0a5.723 5.723 0 0 1 5.723 5.723c0 3.161-2.215 4.271-5.723 5.723S0 8.884 0 5.723A5.723 5.723 0 0 1 5.723 0z" transform="translate(67.243 26.885)"/>
    <path id="Tracé_8041" data-name="Tracé 8041" class="cls-1" d="M159.9-10790.219s4.9-30.451 18.314-40.035c-3.992 11.307-15.359 32.352-9.087 40.035" transform="translate(-89.938 10901.779)"/>
    <path id="Tracé_8042" data-name="Tracé 8042" class="cls-2" d="M159.9-10790.219s4.9-30.451 18.314-40.035c-3.992 11.307-15.976 31.434-9.7 39.117" transform="translate(-91.552 10901.779)"/>
    <path id="Rectangle_1683" data-name="Rectangle 1683" style="fill:none" d="M0 0h112v112H0z"/>
</svg>
