<svg xmlns="http://www.w3.org/2000/svg" width="330.5" height="280.112" viewBox="0 0 330.5 280.112">
  <g id="Droite" transform="translate(-1037.791 -289)">
    <path id="Tracé_8154" data-name="Tracé 8154" d="M103.441-26.135H0q1.1-7.238,6.924-7.238c5.822,0,8.732.218,11.516-2.108s8.6-10.642,16.766-10.642,12.745,9,20.353,9S66.976-54,79.236-54Q91.5-54,103.441-26.135Z" transform="translate(1105.825 452.525)" fill="#cce1cc" fill-rule="evenodd"/>
    <path id="Tracé_8171" data-name="Tracé 8171" d="M107.6-32.433H0a.5.5,0,0,1-.388-.185.5.5,0,0,1-.1-.418,7.14,7.14,0,0,1,2.561-4.4A8.3,8.3,0,0,1,7.2-38.9l1.43,0,1.22,0c4.457,0,6.805-.15,9.069-1.525.578-.351,1.31-.908,2.159-1.552A41.918,41.918,0,0,1,27.49-46.2a19.8,19.8,0,0,1,9.131-2.344c4.446,0,7.884,1.8,11.208,3.549,3.188,1.673,6.2,3.254,9.963,3.254,3.293,0,5.9-2.372,8.912-5.118A38.721,38.721,0,0,1,73.252-52a17.774,17.774,0,0,1,9.168-2.5,17.016,17.016,0,0,1,6.548,1.355,25.312,25.312,0,0,1,6.444,4.028c4.22,3.532,8.465,8.891,12.616,15.93a.5.5,0,0,1,0,.5A.5.5,0,0,1,107.6-32.433Zm-106.962-1H106.718C102.77-40,98.752-45.018,94.771-48.35a24.319,24.319,0,0,0-6.186-3.872A16.022,16.022,0,0,0,82.42-53.5c-6.94,0-11.245,3.921-15.043,7.38-3.037,2.766-5.905,5.379-9.586,5.379-4.01,0-7.272-1.712-10.427-3.368-3.217-1.689-6.544-3.435-10.743-3.435a18.823,18.823,0,0,0-8.677,2.235,41.089,41.089,0,0,0-6.259,4.127c-.87.661-1.622,1.233-2.244,1.611-2.618,1.59-5.349,1.671-9.588,1.671l-1.222,0L7.2-37.9C3.631-37.9,1.477-36.44.636-33.433Z" transform="translate(1093.738 462.173)" fill="#707070"/>
    <g id="Groupe_874" data-name="Groupe 874" transform="translate(1037.791 509.248)">
      <path id="Tracé_8040" data-name="Tracé 8040" d="M187.826-10771.006s-7.044-44.324-27.93-59.248c6.216,17.605,26.293,47.289,16.528,59.248" transform="translate(-153.858 10830.254)" fill="#cce1cc"/>
      <path id="Tracé_8039" data-name="Tracé 8039" d="M176.478-10770.877a.5.5,0,0,1-.17-.03.5.5,0,0,1-.3-.64c1.606-4.441,1.14-10.846-1.425-19.579-2.268-7.722-5.775-16.021-9.166-24.045-2.271-5.375-4.416-10.451-5.993-14.917a.5.5,0,0,1,.171-.565.5.5,0,0,1,.591-.008c4.822,3.446,9.309,8.712,13.334,15.651a111,111,0,0,1,8.7,19.629,165.45,165.45,0,0,1,6.209,23.924.5.5,0,0,1-.413.573.5.5,0,0,1-.574-.413,164.424,164.424,0,0,0-6.173-23.775,109.96,109.96,0,0,0-8.619-19.442,50.552,50.552,0,0,0-11.712-14.324c1.5,4.044,3.4,8.545,5.4,13.278,6.731,15.929,14.36,33.983,10.61,44.354A.5.5,0,0,1,176.478-10770.877Z" transform="translate(-156.372 10830.254)" fill="#707070"/>
      <path id="Tracé_8041" data-name="Tracé 8041" d="M160.066-10796.617s11.146-34.889,14.913-33.637-12.794,27.309-7.628,33.637" transform="translate(-118.697 10856.032)" fill="#c8d5c6"/>
      <path id="Tracé_8193" data-name="Tracé 8193" d="M10.928,19.1S8.649,6.181,0,0C2.574,7.291,11.264,14.084,7.22,19.04" transform="translate(0 40.651) rotate(-1)" fill="#cce1cc"/>
      <path id="Tracé_8042" data-name="Tracé 8042" d="M159.988-10796.2a.492.492,0,0,1-.166-.028.5.5,0,0,1-.306-.638c.028-.08,2.87-8.161,6.08-16.3,5.885-14.922,7.859-17.163,8.831-17.551a.91.91,0,0,1,.78.02c.967.5.569,2.185-.005,3.935-.609,1.854-1.611,4.26-2.772,7.045a121.454,121.454,0,0,0-4.935,13.251,24.187,24.187,0,0,0-1.01,5.714,5.63,5.63,0,0,0,.927,3.736.5.5,0,0,1-.071.7.5.5,0,0,1-.7-.071c-3.32-4.066,1.221-14.963,4.87-23.719,1.05-2.521,2.042-4.9,2.649-6.686.752-2.212.665-2.831.605-2.985-.227.111-1.1.812-3.209,5.185-1.348,2.8-3,6.662-4.906,11.486-3.252,8.224-6.158,16.485-6.187,16.568A.5.5,0,0,1,159.988-10796.2Z" transform="translate(-120.026 10856.032)" fill="#707070"/>
      <path id="Tracé_8192" data-name="Tracé 8192" d="M10.938,19.226a.5.5,0,0,1-.491-.41h0a37.233,37.233,0,0,0-2.2-6.962,32.973,32.973,0,0,0-3.3-6.045A23.509,23.509,0,0,0,1.211,1.6,46.353,46.353,0,0,0,4.623,7.223c2.868,4.263,5.578,8.29,2.754,11.75A.5.5,0,0,1,6.6,18.34a4.475,4.475,0,0,0,.56-4.7A29.282,29.282,0,0,0,3.794,7.781,35.244,35.244,0,0,1-.471.166.5.5,0,0,1-.3-.4.5.5,0,0,1,.291-.407,23.284,23.284,0,0,1,5.768,5.247a34,34,0,0,1,3.405,6.239,37.472,37.472,0,0,1,2.257,7.15.5.5,0,0,1-.492.59Z" transform="translate(1.041 40.632) rotate(-1)" fill="#707070"/>
    </g>
    <g id="Groupe_992" data-name="Groupe 992" transform="translate(1173.253 332.193)">
      <path id="Tracé_8150" data-name="Tracé 8150" d="M6.436-.06C1.679,2.555,0,2.822,0,6.377a6.436,6.436,0,1,0,12.873,0C12.873,2.822,11.193-2.675,6.436-.06Z" transform="translate(0 0.742)" fill="#cce1cc"/>
    </g>
    <path id="Tracé_8172" data-name="Tracé 8172" d="M-9214.936-12145.665s-2.5-4.1-6.975-3.438-6.149,3.544-5.271,5.6,4.728,3.4,5.882,4.653,1.786,4.3,3.326,4.512,3.092-1.238,4.726-1.211,3.8,3.316,5.308,1.965-.806-3.455-.713-5.266a5.77,5.77,0,0,0-2.021-4.653A10.144,10.144,0,0,0-9214.936-12145.665Z" transform="translate(10452.323 12663.342)" fill="#fff"/>
    <path id="Tracé_8172_-_Contour" data-name="Tracé 8172 - Contour" d="M-9220.94-12149.676h0a7.283,7.283,0,0,1,4.778,1.877,9.194,9.194,0,0,1,1.537,1.7,10.218,10.218,0,0,1,4.31,2.249,6.237,6.237,0,0,1,2.162,5.028,4.894,4.894,0,0,0,.59,1.99,6.923,6.923,0,0,1,.61,1.778,1.983,1.983,0,0,1-.652,1.844,1.691,1.691,0,0,1-1.155.454,4.936,4.936,0,0,1-2.594-1.26,4.436,4.436,0,0,0-1.9-1.031h-.037a5.506,5.506,0,0,0-2.047.589,6.061,6.061,0,0,1-2.315.644,2.781,2.781,0,0,1-.386-.026c-1.218-.169-1.89-1.525-2.539-2.837a8.445,8.445,0,0,0-1.086-1.831,10.5,10.5,0,0,0-2.051-1.406c-1.553-.92-3.312-1.963-3.924-3.389a3.575,3.575,0,0,1,.238-3.161c.9-1.613,2.878-2.755,5.419-3.13A7.124,7.124,0,0,1-9220.94-12149.676Zm12.18,15.917a.7.7,0,0,0,.487-.2c.58-.52.383-1.152-.2-2.472a5.544,5.544,0,0,1-.674-2.447,5.28,5.28,0,0,0-1.879-4.278,9.691,9.691,0,0,0-4.018-2.023l-.205-.048-.109-.18a8.006,8.006,0,0,0-1.477-1.657,6.211,6.211,0,0,0-4.1-1.613h0a6.215,6.215,0,0,0-.9.066c-2.232.331-3.943,1.289-4.693,2.63a2.549,2.549,0,0,0-.19,2.279c.482,1.126,2.093,2.08,3.514,2.922a10.72,10.72,0,0,1,2.276,1.589,9.116,9.116,0,0,1,1.247,2.064c.534,1.079,1.086,2.194,1.779,2.291a1.882,1.882,0,0,0,.249.017,5.271,5.271,0,0,0,1.924-.563,6.3,6.3,0,0,1,2.438-.669h.055a4.9,4.9,0,0,1,2.476,1.225A4.442,4.442,0,0,0-9208.761-12133.759Z" transform="translate(10452.323 12663.342)" fill="#707070"/>
    <path id="Tracé_8173" data-name="Tracé 8173" d="M-9214.96-12140.816a.42.42,0,0,1-.061,0,13.921,13.921,0,0,1-4.333-1.3,7.078,7.078,0,0,1-2.8-3.251.5.5,0,0,1,.277-.65.5.5,0,0,1,.187-.036.5.5,0,0,1,.464.313h0a6.147,6.147,0,0,0,2.355,2.747,13.167,13.167,0,0,0,3.974,1.187.5.5,0,0,1,.437.556A.5.5,0,0,1-9214.96-12140.816Z" transform="translate(10454.692 12664.841)" fill="#707070"/>
    <path id="Tracé_8174" data-name="Tracé 8174" d="M-9230.978-12098.549a.434.434,0,0,1-.062,0,.5.5,0,0,1-.436-.557,233.451,233.451,0,0,1,4.524-25.037,58.276,58.276,0,0,1,4.662-12.21,32.759,32.759,0,0,1,2.607-4.3.5.5,0,0,1,.7-.095.5.5,0,0,1,.095.7,32.918,32.918,0,0,0-2.53,4.184,57.276,57.276,0,0,0-4.567,11.972,232.579,232.579,0,0,0-4.5,24.905A.5.5,0,0,1-9230.978-12098.549Z" transform="translate(10451.452 12667.003)" fill="#707070"/>
    <path id="Tracé_8178" data-name="Tracé 8178" d="M182.555-10786.682s-.63-20.935-17.376-32.9c4.45,12.605,5.373,24.027,10.649,32.9" transform="translate(1036.384 11354.633)" fill="#cce1cc"/>
    <path id="Tracé_8177" data-name="Tracé 8177" d="M175.829-10786.182a.5.5,0,0,1-.43-.244c-3.243-5.453-4.882-11.946-6.618-18.82-1.147-4.545-2.334-9.243-4.073-14.17a.5.5,0,0,1,.171-.565.5.5,0,0,1,.591-.008,36.1,36.1,0,0,1,9.678,10.331,41.656,41.656,0,0,1,4.728,10.88,42.774,42.774,0,0,1,1.673,12.117.5.5,0,0,1-.5.479h-.021a.5.5,0,0,1-.479-.521h0a42.648,42.648,0,0,0-1.647-11.841,40.621,40.621,0,0,0-4.615-10.6,35.135,35.135,0,0,0-8.108-9.061c1.472,4.408,2.537,8.624,3.57,12.716,1.717,6.8,3.34,13.227,6.508,18.554a.5.5,0,0,1-.174.686A.5.5,0,0,1,175.829-10786.182Z" transform="translate(1038.882 11354.633)" fill="#707070"/>
    <path id="Tracé_8180" data-name="Tracé 8180" d="M-9645.663-11208.344a35.572,35.572,0,0,1,11.123-4.047c6.48-1.187-11.739,7.127-11.739,7.127" transform="translate(10870.763 11753.209)" fill="#cce1cc"/>
    <path id="Tracé_8179" data-name="Tracé 8179" d="M-9646.071-11204.809l-.416-.91c.031-.014,3.1-1.414,6.223-2.961,1.832-.907,3.324-1.685,4.436-2.312.723-.408,1.211-.712,1.54-.935-.051.008-.1.018-.161.028a35.415,35.415,0,0,0-10.951,3.98l-.523-.852a35.728,35.728,0,0,1,11.295-4.113c.694-.127,1.745-.316,1.955.357.173.55-.328,1.042-2.146,2.106-1.085.636-2.618,1.448-4.557,2.414C-9642.667-11206.364-9646.038-11204.824-9646.071-11204.809Z" transform="translate(10870.763 11751.949)" fill="#707070"/>
    <path id="Tracé_8188" data-name="Tracé 8188" d="M3.314-.391C.865.956,0,1.093,0,2.924a3.314,3.314,0,1,0,6.628,0C6.628,1.093,5.764-1.737,3.314-.391Z" transform="translate(1244.96 484.798)" fill="#fff"/>
    <path id="Tracé_8190" data-name="Tracé 8190" d="M2.727-.453C.712.655,0,.768,0,2.274a2.727,2.727,0,1,0,5.454,0C5.454.768,4.742-1.561,2.727-.453Z" transform="translate(1260.648 517.641)" fill="#fff"/>
    <path id="Tracé_8189" data-name="Tracé 8189" d="M2.947,1A1.949,1.949,0,0,0,1,2.947c0,.947.556,2.1,1.2,2.1a.954.954,0,0,0,.36-.082C4.48,4.177,4.894,3.818,4.894,2.947A1.949,1.949,0,0,0,2.947,1m0-1A2.947,2.947,0,0,1,5.894,2.947c0,1.628-1.141,2.2-2.947,2.947S0,4.575,0,2.947A2.947,2.947,0,0,1,2.947,0Z" transform="translate(1245.775 486.099)" fill="#707070"/>
    <path id="Tracé_8191" data-name="Tracé 8191" d="M2.425,1A1.426,1.426,0,0,0,1,2.425c0,.741.426,1.555.814,1.555a.612.612,0,0,0,.228-.054c1.582-.655,1.807-.909,1.807-1.5A1.426,1.426,0,0,0,2.425,1m0-1A2.425,2.425,0,0,1,4.85,2.425c0,1.339-.939,1.81-2.425,2.425S0,3.764,0,2.425A2.425,2.425,0,0,1,2.425,0Z" transform="translate(1261.317 518.545)" fill="#707070"/>
    <path id="Tracé_8444" data-name="Tracé 8444" d="M2.328,559.587C20.4,574.6,50.95,585.44,93.782,616.749c55.417,40.508,90.274-6.584,104.151-57.162Z" transform="translate(1156.588 -270.587)" fill="#c5dbc0"/>
    <path id="Tracé_8443" data-name="Tracé 8443" d="M159.595,617.671a82.606,82.606,0,0,1-25.586-4.552c-26.717-8.768-48.261-12.972-65.571-16.351-16.448-3.21-29.44-5.745-39.713-10.81A46.235,46.235,0,0,1,15.114,576,57.816,57.816,0,0,1,4.748,559.791a.5.5,0,0,1,.913-.408c11.808,26.419,29.98,29.966,62.969,36.4,17.338,3.384,38.915,7.595,65.691,16.382,20.184,6.624,36.918,5.934,49.738-2.051,7.335-4.569,13.376-11.537,17.954-20.712,4.153-8.321,7.078-18.377,8.7-29.889a.5.5,0,0,1,.99.139c-1.632,11.619-4.59,21.778-8.791,30.2-4.662,9.343-10.826,16.446-18.32,21.114C177.414,615.435,169.057,617.671,159.595,617.671Z" transform="translate(1156.588 -269.587)" fill="#5d5d5d"/>
  </g>
</svg>
