<svg xmlns="http://www.w3.org/2000/svg" viewBox="0 0 54.7 30.4"><path d="M46.09 29.99v.08h.07c.02 0 .03 0 .04-.01.01-.01.01-.02.01-.03 0-.01-.01-.02-.01-.03-.01-.01-.02-.01-.04-.01h-.07zm.07-.06c.04 0 .07.01.09.03s.03.04.03.07c0 .02-.01.04-.02.06a.09.09 0 0 1-.07.03l.1.11h-.08l-.09-.11h-.03v.11h-.06v-.3h.13zm-.02.4c.03 0 .07-.01.1-.02s.06-.03.08-.05c.02-.02.04-.05.05-.08.01-.03.02-.06.02-.1s-.01-.07-.02-.1a.218.218 0 0 0-.05-.08.218.218 0 0 0-.08-.05c-.03-.01-.06-.02-.1-.02-.03 0-.07.01-.1.02s-.06.03-.08.05c-.02.02-.04.05-.05.08-.01.03-.02.06-.02.1s.01.07.02.1.03.06.05.08c.02.02.05.04.08.05.03.01.07.02.1.02m0-.57c.05 0 .09.01.13.03a.36.36 0 0 1 .17.17c.02.04.03.08.03.12s-.01.09-.03.12-.04.07-.07.1a.36.36 0 0 1-.1.07c-.04.02-.08.03-.13.03s-.09-.01-.13-.03a.36.36 0 0 1-.17-.17c-.02-.04-.03-.08-.03-.12s.01-.09.03-.12a.36.36 0 0 1 .17-.17c.04-.02.09-.03.13-.03m-29.92-1.14c0-.56.37-1.03.97-1.03.58 0 .97.44.97 1.03s-.39 1.03-.97 1.03c-.6 0-.97-.46-.97-1.03m2.6 0v-1.6h-.7v.39c-.22-.29-.56-.47-1.01-.47-.9 0-1.6.7-1.6 1.68s.7 1.68 1.6 1.68c.46 0 .79-.18 1.01-.47v.39h.7v-1.6zm23.56 0c0-.56.37-1.03.97-1.03.58 0 .97.44.97 1.03s-.39 1.03-.97 1.03c-.6 0-.97-.46-.97-1.03m2.6 0v-2.89h-.7v1.68c-.22-.29-.56-.47-1.01-.47-.9 0-1.6.7-1.6 1.68s.7 1.68 1.6 1.68c.46 0 .79-.18 1.01-.47v.39h.7v-1.6zm-17.51-1.06c.45 0 .74.28.81.78h-1.66c.08-.46.36-.78.85-.78m.02-.62c-.94 0-1.6.68-1.6 1.68 0 1.02.68 1.68 1.64 1.68.48 0 .93-.12 1.31-.45l-.34-.52c-.27.21-.61.34-.93.34-.45 0-.86-.21-.96-.79H29c.01-.09.01-.17.01-.27-.01-.99-.62-1.67-1.52-1.67m8.42 1.68c0-.56.37-1.03.97-1.03.58 0 .97.44.97 1.03s-.39 1.03-.97 1.03c-.6 0-.97-.46-.97-1.03m2.59 0v-1.6h-.7v.39c-.22-.29-.56-.47-1.01-.47-.9 0-1.6.7-1.6 1.68s.7 1.68 1.6 1.68c.46 0 .79-.18 1.01-.47v.39h.7v-1.6zm-6.53 0c0 .97.68 1.68 1.71 1.68.48 0 .8-.11 1.15-.38l-.33-.56c-.26.19-.54.29-.84.29-.56-.01-.97-.41-.97-1.03 0-.62.41-1.02.97-1.03.3 0 .58.1.84.29l.33-.56c-.35-.27-.67-.38-1.15-.38-1.03 0-1.71.71-1.71 1.68m8.99-1.68c-.4 0-.66.19-.85.47v-.39h-.69v3.21h.7v-1.8c0-.53.23-.83.68-.83.14 0 .29.02.44.08l.22-.66c-.16-.05-.36-.08-.5-.08m-18.69.34c-.34-.22-.8-.34-1.31-.34-.81 0-1.34.39-1.34 1.03 0 .52.39.85 1.11.95l.33.05c.38.05.56.15.56.34 0 .25-.25.39-.73.39s-.83-.15-1.07-.34l-.33.54c.38.28.87.42 1.39.42.93 0 1.46-.44 1.46-1.05 0-.56-.42-.86-1.12-.96l-.33-.05c-.3-.04-.54-.1-.54-.31 0-.23.23-.38.61-.38.41 0 .81.15 1 .27l.31-.56zm8.99-.34c-.4 0-.66.19-.84.47v-.39h-.69v3.21h.7v-1.8c0-.53.23-.83.68-.83.14 0 .29.02.44.08l.22-.66c-.16-.05-.36-.08-.51-.08m-5.95.08h-1.14v-.97h-.7v.97h-.65v.64h.65v1.46c0 .74.29 1.19 1.11 1.19.3 0 .65-.09.87-.25l-.2-.6c-.21.12-.44.18-.62.18-.35 0-.46-.22-.46-.54v-1.45h1.14v-.63zm-10.42 3.21v-2.01c0-.76-.48-1.27-1.26-1.27-.41-.01-.83.12-1.13.57-.22-.36-.57-.57-1.06-.57-.34 0-.68.1-.94.48v-.4h-.7v3.21h.7v-1.78c0-.56.31-.85.79-.85.46 0 .7.3.7.85v1.78h.7v-1.78c0-.56.32-.85.78-.85.48 0 .7.3.7.85v1.78h.72z" fill="#231f20"/><path d="M46.52 19.56v-.47h-.12l-.14.32-.14-.32H46v.47h.09v-.35l.13.3h.09l.13-.31v.35h.08zm-.78 0v-.39h.16v-.08h-.4v.08h.16v.39h.08z" fill="#f79410"/><path d="M32.63 21.58H22.07v-19h10.57v19z" fill="#ff5f00"/><path d="M22.74 12.08c0-3.85 1.8-7.28 4.61-9.5A12.041 12.041 0 0 0 19.89 0C13.22 0 7.81 5.41 7.81 12.08s5.41 12.08 12.08 12.08c2.82 0 5.41-.97 7.46-2.58-2.8-2.22-4.61-5.65-4.61-9.5" fill="#eb001b"/><path d="M46.89 12.08c0 6.67-5.41 12.08-12.08 12.08-2.82 0-5.41-.97-7.47-2.58 2.81-2.21 4.61-5.64 4.61-9.5s-1.8-7.28-4.61-9.5C29.4.97 31.99 0 34.81 0c6.67 0 12.08 5.41 12.08 12.08" fill="#f79e1b"/></svg>