<svg data-name="Logo La poste" xmlns="http://www.w3.org/2000/svg" width="32" height="32" viewBox="0 0 32 32">
    <circle data-name="Ellipse 148" cx="16" cy="16" r="16" style="fill:#ffc92b"/>
    <g data-name="Groupe 6857">
        <path data-name="Union 24" d="M24.154-2945.158a9.812 9.812 0 0 1-2.839 2.928 2.132 2.132 0 0 1-1 .238l-9.724.167zm-15.849 3.151c-.04-.116.049-.216.175-.281.159-.081.654-.256.93-.357 1.157-.426 3.385-1.268 5.159-2.114 1.682-.8 2.918-1.7 2.922-2.633 0-.115.032-.14.139-.144.2-.008 13.065-.205 13.261-.21.275-.007.468.083.477.249s-.183.3-.415.345c-2.967.534-7.015 1.422-11.12 2.446-3.964.991-8.034 2.01-10.256 2.588-.245.063-.466.117-.663.17a1.555 1.555 0 0 1-.379.063c-.146 0-.205-.05-.23-.122zm8.86-6.168a20.636 20.636 0 0 0-3.944-1.778.707.707 0 0 1-.273-.145.21.21 0 0 1-.052-.18c.039-.193.278-.177.372-.177H25.06c.846 0 1.264.04 1.523.288.238.229.224.574.014.977-.192.367-.516.937-.531.958l-8.787.137z" transform="translate(-3.796 2962.455)" style="fill:#003da5"/>
    </g>
</svg>
