<svg xmlns="http://www.w3.org/2000/svg" width="76" height="16.398" viewBox="0 0 76 16.398">
    <defs>
        <linearGradient id="a" x1="-.004" y1=".501" x2="1.014" y2=".501" gradientUnits="objectBoundingBox">
            <stop offset="0" stop-color="#006caf"/>
            <stop offset=".332" stop-color="#0081c5"/>
            <stop offset=".733" stop-color="#0095da"/>
            <stop offset="1" stop-color="#009ce1"/>
        </linearGradient>
    </defs>
    <path data-name="Tracé 9129" d="M9.684 7.335h-.208l-.362-.21a.1.1 0 0 1-.1-.1v-.581c0-.1 0-.1.1-.21l4.35-2.724L7.146 0h-.414L.362 3.51 7.508 7.7c.1 0 .1.1.1.21v6.077c0 .1 0 .1-.1.21l-.362.21h-.207l-.362-.21c-.1 0-.1-.1-.1-.21v-5.4a.1.1 0 0 0-.1-.1L0 4.768V12a.947.947 0 0 0 .207.472l6.421 3.824c.1 0 .1.1.207.1s.207 0 .207-.1l6.421-3.824a.578.578 0 0 0 .208-.472V4.768z" style="fill:url(#a)"/>
    <path data-name="Tracé 9130" d="M67.828 26.216h-1.654V18.1a7.949 7.949 0 0 1 2.587-.577 3.075 3.075 0 0 1 3.366 3.039c0 2.031-1.227 3.2-3.366 3.2v-1.31a1.566 1.566 0 0 0 1.218-.5 2.066 2.066 0 0 0 .439-1.386 1.532 1.532 0 0 0-1.657-1.677 1.32 1.32 0 0 0-.932.21zM33.6 24.121a3.04 3.04 0 0 1-3.159-3.2 3.04 3.04 0 0 1 3.159-3.2 2.523 2.523 0 0 1 1.657.367v1.571a2.139 2.139 0 0 0-1.5-.576 1.532 1.532 0 0 0-1.657 1.685 1.532 1.532 0 0 0 1.657 1.677 4.6 4.6 0 0 0 .907-.12h.008a3.194 3.194 0 0 1 .587-.087v1.52l-.151.046-.035.011-.049.016a4.83 4.83 0 0 1-1.423.292zm53.543-.157c-1.718 0-2.589-.829-2.589-2.462v-6.026h1.656v2.253h2.072v1.31H86.21V21.5c0 .59.426.943 1.138.943a1.85 1.85 0 0 0 1.087-.21v1.52a3.293 3.293 0 0 1-1.293.209zm-5.748 0a3.673 3.673 0 0 1-1.781-.524h.123v-1.52a2.828 2.828 0 0 0 1.865.733.654.654 0 0 0 .725-.577c0-.223-.253-.379-.932-.576-1.324-.214-1.865-.761-1.865-1.886a1.716 1.716 0 0 1 .628-1.437 2.589 2.589 0 0 1 1.6-.451 2.835 2.835 0 0 1 1.657.367v1.521a2.89 2.89 0 0 0-1.657-.576c-.488 0-.725.189-.725.576 0 .192.12.354.725.576a2.927 2.927 0 0 1 1.6.59 1.635 1.635 0 0 1 .472 1.3c0 1.391-1.255 1.886-2.433 1.886zm-5.595-.053a3.04 3.04 0 0 1-3.159-3.2 3.159 3.159 0 1 1 6.318 0 3.04 3.04 0 0 1-3.157 3.2zm0-4.872c-.983 0-1.5.58-1.5 1.677a1.527 1.527 0 0 0 1.5 1.677c.983 0 1.5-.58 1.5-1.677 0-1.066-.545-1.677-1.5-1.677zm-13.358 4.872a3.04 3.04 0 0 1-3.158-3.2 3.159 3.159 0 1 1 6.318 0 3.04 3.04 0 0 1-3.159 3.2zm0-4.872c-.982 0-1.5.58-1.5 1.677a1.527 1.527 0 0 0 1.5 1.677c.983 0 1.5-.58 1.5-1.677a1.557 1.557 0 0 0-1.5-1.677zm-13.049 4.872a3.04 3.04 0 0 1-3.159-3.2 3.161 3.161 0 1 1 6.318 0 3.04 3.04 0 0 1-3.159 3.2zm0-4.872c-.983 0-1.5.58-1.5 1.677a1.527 1.527 0 0 0 1.5 1.677c.983 0 1.5-.58 1.5-1.677 0-1.066-.547-1.677-1.5-1.677zm5.386 4.716h-1.45V18.1a6.863 6.863 0 0 1 2.8-.577 2.826 2.826 0 0 1 1.916.525 2.421 2.421 0 0 1 .673 1.938v3.772h-1.659v-3.776c0-.59-.426-.943-1.138-.943a2.116 2.116 0 0 0-1.138.209v4.506zm-10.616 0h-1.657v-3.772a2.385 2.385 0 0 1 .731-1.938 2.829 2.829 0 0 1 1.856-.525 2.352 2.352 0 0 1 .565.092 3.14 3.14 0 0 0 .782.12v1.516a2.32 2.32 0 0 0-1.138-.209c-.831 0-1.138.256-1.138.943v3.772zm-4.037 0v-3.772c0-.59-.426-.943-1.138-.943a2.115 2.115 0 0 0-1.138.209v4.506h-1.662V14.9h1.864v2.829a3.012 3.012 0 0 0 .577-.085h.016a4.6 4.6 0 0 1 .907-.12 2.247 2.247 0 0 1 2.227 2.463v3.772z" transform="translate(-12.435 -11.967)" style="fill:#3c3c3b"/>
</svg>
