<svg id="Logo_Mondial_relais" data-name="Logo Mondial relais" xmlns="http://www.w3.org/2000/svg" width="32" height="32" viewBox="0 0 32 32">
    <defs>
        <style>
            .cls-3{fill:#fff}.cls-4{fill:#c7bcaf}
        </style>
    </defs>
    <path id="Rectangle_1716" data-name="Rectangle 1716" style="fill:none" d="M0 0h32v32H0z"/>
    <g id="g407" transform="translate(1.5 1.1)">
        <g id="g78">
            <path id="path80" d="M-571-488.228a4.339 4.339 0 0 1-3.267 4.043 64.53 64.53 0 0 1-22.466 0 4.339 4.339 0 0 1-3.267-4.043V-508a4.34 4.34 0 0 1 3.267-4.043 64.532 64.532 0 0 1 22.466 0A4.338 4.338 0 0 1-571-508z" transform="translate(600 513.024)" style="fill:#ce0c4b"/>
        </g>
        <g id="g82" transform="translate(10.755 6.309)">
            <path id="path84" class="cls-3" d="M-102.159-47.594c-1.689-.3-2.815.6-2.815 2.071v4.844l-2.654-1.58v-3.264c0-2.935 2.031-4.986 5.469-4.563z" transform="translate(107.628 50.142)"/>
        </g>
        <path id="path86" class="cls-4" d="M1710.59-1249.609h-2.506v-2.506h2.506z" transform="translate(-1691.487 1258.586)"/>
        <path id="Union_25" data-name="Union 25" class="cls-3" d="M-9.5-2914.733v-3.091a2.117 2.117 0 0 1 2.194-2.277 6.335 6.335 0 0 1 .739.061v1.19a3.8 3.8 0 0 0-.619-.066 1.151 1.151 0 0 0-.815.3 1.089 1.089 0 0 0-.305.79v3.091zm17.147 0v-2.042l-1.791-3.291H7.2l1.042 2.064 1.049-2.064h1.339l-1.791 3.291v2.042zm-7.8 0a1.7 1.7 0 0 1-1.27-.473 1.744 1.744 0 0 1-.441-1.248v-3.612h1.176v3.6a.628.628 0 0 0 .118.44.544.544 0 0 0 .419.125H1.5l-.4 1.171zm-4.4 0a1.7 1.7 0 0 1-1.276-.48 1.766 1.766 0 0 1-.442-1.256v-1.861a1.772 1.772 0 0 1 .442-1.256 1.7 1.7 0 0 1 1.28-.48h1.899v1.17h-1.906a.585.585 0 0 0-.425.118.579.579 0 0 0-.119.427v.388h2.074v1.119H-5.1v.391a.59.59 0 0 0 .12.43.573.573 0 0 0 .424.12h1.906v1.171zm10.148 0-.346-1.026H3.272l-.347 1.026H1.669l1.6-4.581c.258-.75.632-.751.825-.751h.326c.194 0 .57 0 .825.751l1.6 4.581zm-1.939-2.144h1.208l-.608-1.808z" transform="translate(14.068 2939.85)"/>
        <path id="Union_26" data-name="Union 26" class="cls-3" d="M-5.769-2919.084a.973.973 0 0 1 .959-1.016.973.973 0 0 1 .957 1.016.973.973 0 0 1-.957 1.019.973.973 0 0 1-.959-1.019zm.437 0a.569.569 0 0 0 .522.6.567.567 0 0 0 .518-.6.567.567 0 0 0-.518-.6.568.568 0 0 0-.522.6zm12.84.988-.127-.376H6.66l-.127.376h-.461s.441-1.26.586-1.68c.095-.275.231-.275.3-.275h.121c.071 0 .209 0 .3.275l.586 1.68zm-.711-.787h.446l-.223-.663zm-8.059.786v-1.292a.259.259 0 0 0-.287-.283.259.259 0 0 0-.284.283v1.292h-.434v-1.284a.714.714 0 0 1 .2-.515.716.716 0 0 1 .517-.2.722.722 0 0 1 .521.2.722.722 0 0 1 .2.515v1.284zm-6.233 0v-1.292a.273.273 0 0 0-.285-.283.268.268 0 0 0-.281.283v1.292H-8.5v-1.292a.271.271 0 0 0-.283-.283.272.272 0 0 0-.285.283v1.292H-9.5v-1.286a.7.7 0 0 1 .718-.716.662.662 0 0 1 .5.22.668.668 0 0 1 .5-.22.7.7 0 0 1 .721.716v1.286zm16.79-.175a.641.641 0 0 1-.162-.458v-1.325h.437v1.32c.008.165.039.2.2.208h.6v.429h-.611a.623.623 0 0 1-.459-.174zm-5.232.174v-1.957H4.5v1.957zm-2.435 0H.895v-1.957h.734a.845.845 0 0 1 .649.266 1.044 1.044 0 0 1 .238.713 1.037 1.037 0 0 1-.241.711.845.845 0 0 1-.644.267zm-.3-.41h.3c.392 0 .448-.345.452-.571 0-.273-.077-.564-.452-.565h-.3z" transform="translate(14.057 2937.084)"/>
        <g id="g134" transform="translate(12.257 2.721)">
            <path id="path136" class="cls-4" d="M-56.948-28.474a1.524 1.524 0 0 1-1.524 1.524A1.524 1.524 0 0 1-60-28.474 1.524 1.524 0 0 1-58.472-30a1.524 1.524 0 0 1 1.524 1.524" transform="translate(59.997 29.998)"/>
        </g>
    </g>
</svg>
